<?xml version="1.0" encoding="utf-8"?>
<!-- Generator: Adobe Illustrator 24.3.0, SVG Export Plug-In . SVG Version: 6.00 Build 0)  -->
<svg version="1.1" id="Layer_1" xmlns="http://www.w3.org/2000/svg" xmlns:xlink="http://www.w3.org/1999/xlink" x="0px" y="0px"
	 viewBox="0 0 24 24" style="enable-background:new 0 0 24 24;" xml:space="preserve">
<style type="text/css">
	.st0{fill:#FFFFFF;}
</style>
<path class="st0" d="M12,0C5.4,0,0,5.4,0,12c0,6.6,5.4,12,12,12c6.6,0,12-5.4,12-12C24,5.4,18.6,0,12,0z M15.9,7l-1.4,0
	c-1.1,0-1.3,0.5-1.3,1.3V10h2.6l-0.3,2.7h-2.3v6.8h-2.8v-6.8H8.1V10h2.3V8c0-2.3,1.4-3.5,3.4-3.5c1,0,1.8,0.1,2.1,0.1V7z"/>
</svg>
