<?xml version="1.0" encoding="utf-8"?>
<!-- Generator: Adobe Illustrator 24.3.0, SVG Export Plug-In . SVG Version: 6.00 Build 0)  -->
<svg version="1.1" id="Layer_1" xmlns="http://www.w3.org/2000/svg" xmlns:xlink="http://www.w3.org/1999/xlink" x="0px" y="0px"
	 viewBox="0 0 24 24" style="enable-background:new 0 0 24 24;" xml:space="preserve">
<style type="text/css">
	.st0{fill:#FFFFFF;}
	.st1{fill:#FBBB00;}
	.st2{fill:#518EF8;}
	.st3{fill:#28B446;}
	.st4{fill:#F14336;}
</style>
<circle class="st0" cx="12" cy="12" r="12"/>
<g>
	<path class="st1" d="M7.3,13.8L6.7,16l-2.2,0c-0.6-1.2-1-2.6-1-4c0-1.4,0.3-2.7,1-3.9h0l1.9,0.4l0.8,1.9C7,10.9,6.9,11.4,6.9,12
		C6.9,12.6,7.1,13.2,7.3,13.8z"/>
	<path class="st2" d="M20.4,10.4c0.1,0.5,0.1,1,0.1,1.6c0,0.6-0.1,1.2-0.2,1.8c-0.4,1.9-1.5,3.6-3,4.9l0,0l-2.4-0.1l-0.3-2.1
		c1-0.6,1.8-1.5,2.2-2.6h-4.5v-3.4h4.6H20.4L20.4,10.4z"/>
	<path class="st3" d="M17.3,18.6L17.3,18.6c-1.5,1.2-3.3,1.9-5.3,1.9c-3.2,0-6.1-1.8-7.5-4.5l2.8-2.3c0.7,1.9,2.6,3.3,4.7,3.3
		c0.9,0,1.8-0.3,2.6-0.7L17.3,18.6z"/>
	<path class="st4" d="M17.4,5.5l-2.8,2.3C13.9,7.2,13,6.9,12,6.9c-2.2,0-4.1,1.4-4.8,3.4L4.5,8.1h0C5.9,5.4,8.7,3.5,12,3.5
		C14.1,3.5,16,4.2,17.4,5.5z"/>
</g>
</svg>
