<svg width="40" height="23" viewBox="0 0 40 23" fill="none" xmlns="http://www.w3.org/2000/svg">
<path d="M0 21.7518V0.961782H5.31326V12.8426L15.9369 0.25L20 3.75553L13.5828 11.2975C15.8222 14.0615 17.8609 15.841 19.6416 16.6655L17.5168 22.25C14.9362 21.0904 12.3556 18.9224 9.79212 15.7431L4.71111 21.7518H0Z" fill="#0F0F0F"/>
<path d="M31 14.25C26.0294 14.25 22 16.9363 22 20.25V22.25H40V20.25C40 16.9363 35.9706 14.25 31 14.25Z" fill="#0F0F0F"/>
<path d="M36 7.25C36 10.0114 33.7614 12.25 31 12.25C28.2386 12.25 26 10.0114 26 7.25C26 4.48858 28.2386 2.25 31 2.25C33.7614 2.25 36 4.48858 36 7.25Z" fill="#0F0F0F"/>
</svg>
